Coordinates
version=1
nRows=23
nColumns=38
inDegrees=no

Units are S.I. units (second, meters, Newtons, ...)
If the header above contains a line with 'inDegrees', this indicates whether rotational values are in degrees (yes) or radians (no).

endheader
time	pelvis_tilt	pelvis_list	pelvis_rotation	pelvis_tx	pelvis_ty	pelvis_tz	hip_flexion_r	hip_adduction_r	hip_rotation_r	knee_angle_r	ankle_angle_r	subtalar_angle_r	mtp_angle_r	hip_flexion_l	hip_adduction_l	hip_rotation_l	knee_angle_l	ankle_angle_l	subtalar_angle_l	mtp_angle_l	lumbar_extension	lumbar_bending	lumbar_rotation	arm_flex_r	arm_add_r	arm_rot_r	elbow_flex_r	pro_sup_r	wrist_flex_r	wrist_dev_r	arm_flex_l	arm_add_l	arm_rot_l	elbow_flex_l	pro_sup_l	wrist_flex_l	wrist_dev_l
15	3.05858	1.28907	-1.69482	0.690912	-0.971621	0.938846	-0.443996	-0.00923092	-0.615314	0.1871	0.207076	0	0	0.00884821	-0.037838	-0.499034	0.164607	-0.0572159	0	0	-0.49906	-0.0427826	0.177737	0.377502	-0.406493	0.010006	1.97849	0.59824	0	0	0.216867	-0.240883	-0.0800498	1.92	0.910305	0	0
15.01	3.03251	1.2754	-1.65594	0.691153	-0.975703	0.942662	-0.452534	0.0127938	-0.567127	0.207632	0.523599	0	0	-0.00616733	-0.0574526	-0.538022	0.16015	-0.0755882	0	0	-0.527157	-0.0372434	0.169722	0.379253	-0.40287	0.00189585	1.9842	0.598219	0	0	0.225537	-0.242083	-0.0809008	1.92518	0.909306	0	0
15.02	2.96649	1.27207	-1.60985	0.692606	-0.973202	0.941993	-0.446552	-0.0189285	-0.698132	0.259965	0.523599	0	0	-0.0133871	-0.0751943	-0.490952	0.167111	-0.067647	0	0	-0.524106	-0.0245915	0.196924	0.363283	-0.413585	-0.00274796	1.9989	0.597184	0	0	0.211598	-0.233018	-0.0813261	1.9305	0.907673	0	0
15.03	2.94512	1.28185	-1.582	0.693306	-0.973115	0.94045	-0.433427	-0.0110261	-0.698132	0.268366	0.523599	0	0	-0.000261483	-0.0818287	-0.491947	0.162292	-0.0774202	0	0	-0.513779	-0.0191371	0.196088	0.350963	-0.412308	-0.00981991	2.0089	0.596309	0	0	0.206847	-0.23489	-0.0803326	1.93887	0.906405	0	0
15.04	2.86185	1.31142	-1.48071	0.69014	-0.96972	0.934516	-0.401981	0.0111239	-0.698132	0.278929	0.523599	0	0	0.0546469	-0.105915	-0.487926	0.20085	-0.0476025	0	0	-0.472856	0.0150427	0.190545	0.331249	-0.423698	-0.0122681	2.02436	0.592535	0	0	0.189198	-0.226886	-0.080231	1.94624	0.904596	0	0
15.05	3.05146	1.29559	-1.6691	0.692091	-0.96779	0.936608	-0.437822	0.00215455	-0.621461	0.197899	0.217669	0	0	0.0272365	-0.0495138	-0.49922	0.185632	-0.0713434	0	0	-0.486055	-0.0439267	0.175217	0.313919	-0.408764	-0.0228427	2.02939	0.589068	0	0	0.186625	-0.241598	-0.0770509	1.95849	0.902742	0	0
15.06	2.92886	1.25472	-1.55285	0.691504	-0.971039	0.944364	-0.474529	-0.000386762	-0.698132	0.246528	0.523599	0	0	-0.00927036	-0.104026	-0.521458	0.209163	-0.078787	0	0	-0.543226	-0.0102661	0.192455	0.323595	-0.422318	-0.0218182	2.03725	0.58503	0	0	0.190725	-0.227385	-0.0808118	1.95809	0.90146	0	0
15.07	2.98617	1.27106	-1.61729	0.692958	-0.966691	0.940161	-0.452044	-0.02626	-0.698132	0.273574	0.523599	0	0	0.00661594	-0.0764046	-0.505616	0.211979	-0.0735219	0	0	-0.51388	-0.0326133	0.195465	0.299267	-0.420835	-0.0291849	2.04826	0.581948	0	0	0.174677	-0.231844	-0.0798129	1.96974	0.89982	0	0
15.08	3.02241	1.27207	-1.64387	0.692114	-0.967001	0.940477	-0.447931	-0.0364183	-0.698132	0.28134	0.523599	0	0	0.0173895	-0.0746485	-0.542433	0.228926	-0.0794417	0	0	-0.516044	-0.0416822	0.184781	0.291767	-0.419431	-0.0360376	2.05615	0.579328	0	0	0.173283	-0.232926	-0.0792331	1.9749	0.898262	0	0
15.09	-3.10267	1.3018	-1.78018	0.68911	-0.959368	0.934355	-0.421346	-0.0513264	-0.664031	0.272122	0.523599	0	0	0.0411712	-0.0133825	-0.469766	0.202447	-0.0851654	0	0	-0.461824	-0.0724762	0.15755	0.254976	-0.41334	-0.0487683	2.06542	0.566976	0	0	0.149687	-0.238444	-0.0762929	1.98203	0.892015	0	0
15.1	3.12983	1.31035	-1.74455	0.69033	-0.960384	0.933531	-0.401846	-0.0620535	-0.698132	0.301574	0.523599	0	0	0.0537312	-0.0305228	-0.475416	0.213644	-0.0828456	0	0	-0.458214	-0.0627954	0.174072	0.249422	-0.418849	-0.0514901	2.0739	0.564116	0	0	0.142932	-0.233706	-0.0773409	1.98589	0.890483	0	0
15.11	3.13868	1.3113	-1.75298	0.690343	-0.95886	0.93323	-0.39959	-0.0658495	-0.698132	0.308815	0.523599	0	0	0.0494114	-0.0307976	-0.456807	0.205712	-0.0880876	0	0	-0.455478	-0.0661973	0.174348	0.238256	-0.419362	-0.0560745	2.0814	0.56117	0	0	0.136341	-0.233929	-0.0776895	1.99156	0.888869	0	0
15.12	-3.11668	1.30414	-1.78062	0.690955	-0.957996	0.934133	-0.406633	-0.0748103	-0.698132	0.310187	0.523599	0	0	0.0387735	-0.0225173	-0.456763	0.200731	-0.0983329	0	0	-0.462087	-0.0768167	0.172279	0.229451	-0.418418	-0.0606328	2.08783	0.558189	0	0	0.132424	-0.23553	-0.0775912	1.99755	0.887312	0	0
15.13	-3.06444	1.30799	-1.82053	0.691059	-0.955361	0.933076	-0.41863	-0.0942078	-0.698132	0.294796	0.266037	0	0	0.0370165	-0.0146235	-0.391337	0.193326	-0.133947	0	0	-0.452166	-0.0894403	0.16246	0.21524	-0.413992	-0.0680842	2.09431	0.545538	0	0	0.128413	-0.2405	-0.0773137	2.00586	0.881935	0	0
15.14	-3.04297	1.3074	-1.83778	0.690605	-0.953397	0.932756	-0.4287	-0.0969418	-0.698132	0.27943	0.26326	0	0	0.0371943	-0.00823328	-0.388819	0.194487	-0.135857	0	0	-0.449967	-0.0940788	0.158724	0.203853	-0.414779	-0.0733856	2.10228	0.535812	0	0	0.121767	-0.240918	-0.0768343	2.0124	0.878485	0	0
15.15	-3.0247	1.29951	-1.86449	0.692481	-0.953273	0.934297	-0.423735	-0.0944842	-0.698132	0.269493	0.249465	0	0	0.00558532	0.00491508	-0.368504	0.0935244	-0.257925	0	0	-0.459335	-0.107905	0.164997	0.197486	-0.411594	-0.0788426	2.10694	0.523891	0	0	0.120712	-0.243701	-0.0760652	2.01801	0.875755	0	0
15.16	-3.01473	1.30011	-1.87267	0.692509	-0.951607	0.934087	-0.424227	-0.0966004	-0.698132	0.270037	0.250652	0	0	0.00692572	0.00655463	-0.368655	0.0963704	-0.258387	0	0	-0.457553	-0.110611	0.164509	0.186977	-0.412039	-0.0836381	2.11462	0.52091	0	0	0.114757	-0.243974	-0.0756329	2.02434	0.875111	0	0
15.17	-3.04191	1.31656	-1.83932	0.692058	-0.949541	0.931739	-0.411223	-0.0824749	-0.698132	0.271556	0.254147	0	0	0.0503209	-0.0182057	-0.392803	0.210905	-0.132999	0	0	-0.440956	-0.0966183	0.165296	0.174037	-0.415006	-0.0889036	2.12462	0.515524	0	0	0.10591	-0.241942	-0.0758829	2.03068	0.873827	0	0
15.18	-3.04416	1.30051	-1.84001	0.690995	-0.949185	0.934237	-0.418611	-0.0871404	-0.698132	0.303467	0.523599	0	0	0.0488464	-0.00932193	-0.45923	0.243757	-0.128391	0	0	-0.462011	-0.0986061	0.164079	0.170215	-0.419308	-0.0918415	2.13264	0.513624	0	0	0.101229	-0.237761	-0.0765502	2.03406	0.872907	0	0
15.19	-3.02681	1.30724	-1.85115	0.689758	-0.948435	0.933324	-0.407964	-0.0912156	-0.698132	0.314157	0.523599	0	0	0.0658094	-0.0116989	-0.517213	0.25385	-0.100069	0	0	-0.456895	-0.0983143	0.158532	0.16321	-0.421409	-0.0961357	2.14104	0.511521	0	0	0.0967863	-0.235795	-0.0773539	2.03859	0.871604	0	0
15.2	-3.01607	1.31833	-1.86041	0.691925	-0.94453	0.93127	-0.413058	-0.0870375	-0.698132	0.274592	0.262836	0	0	0.0531182	-0.0128685	-0.393493	0.21783	-0.135085	0	0	-0.438003	-0.102856	0.164892	0.14498	-0.416411	-0.104315	2.14885	0.503907	0	0	0.0902754	-0.240678	-0.0770119	2.04594	0.866452	0	0
15.21	-2.99813	1.30113	-1.87655	0.690274	-0.945807	0.934617	-0.417565	-0.094929	-0.698132	0.306525	0.523599	0	0	0.0505172	-0.00230456	-0.446478	0.239544	-0.150711	0	0	-0.46458	-0.110071	0.156308	0.147481	-0.416962	-0.106212	2.1536	0.502307	0	0	0.0913775	-0.239019	-0.0779721	2.0484	0.865169	0	0
15.22	-3.00917	1.32403	-1.86488	0.690953	-0.939619	0.929768	-0.419385	-0.0869186	-0.698132	0.262702	0.262222	0	0	0.0644891	-0.00687847	-0.453057	0.221684	-0.112072	0	0	-0.428279	-0.100228	0.167493	0.122723	-0.421526	-0.114324	2.16761	0.497052	0	0	0.076171	-0.237286	-0.076488	2.0554	0.861189	0	0
